<svg viewBox="0 0 138 44" xmlns="http://www.w3.org/2000/svg" xmlns:xlink="http://www.w3.org/1999/xlink"><clipPath id="a"><path d="m81 26.1v10.82a1 1 0 1 0 2 0v-10.82a1 1 0 0 0 -2 0"/></clipPath><clipPath id="b"><path d="m107.91 30.17a1 1 0 1 0 0 2h2.72a1.9 1.9 0 0 1 0 3.79h-2.72a1 1 0 1 0 0 2h2.72a3.87 3.87 0 0 0 0-7.74z"/></clipPath><clipPath id="c"><path d="m101.5 20.55a1 1 0 0 0 1.83.76 6.38 6.38 0 1 1 5.87 8.86h-1.85a1 1 0 1 0 0 2h1.85a8.36 8.36 0 1 0 -7.7-11.6"/></clipPath><clipPath id="d"><path d="m108.68 5.74v7a.52.52 0 0 0 .52.51.51.51 0 0 0 .52-.51v-7a.52.52 0 0 0 -.52-.52.52.52 0 0 0 -.52.52"/></clipPath><clipPath id="e"><path d="m96.07 10.66a.5.5 0 0 0 0 .73l4.93 4.94a.52.52 0 0 0 .36.16.54.54 0 0 0 .37-.16.52.52 0 0 0 0-.73l-4.93-4.94a.53.53 0 0 0 -.37-.15.51.51 0 0 0 -.36.15"/></clipPath><clipPath id="f"><path d="m121.61 10.66-5 4.94a.52.52 0 0 0 0 .73.56.56 0 0 0 .37.16.52.52 0 0 0 .36-.16l5-4.94a.52.52 0 0 0 0-.73.53.53 0 0 0 -.37-.15.51.51 0 0 0 -.36.15"/></clipPath><clipPath id="g"><path d="m103.27 9.49a.51.51 0 0 0 -.27.67l1.49 3.61a.51.51 0 0 0 .47.32.65.65 0 0 0 .2 0 .51.51 0 0 0 .28-.68l-1.44-3.64a.52.52 0 0 0 -.68-.28"/></clipPath><clipPath id="h"><path d="m94.89 17.87a.54.54 0 0 0 .28.68l3.61 1.45a.65.65 0 0 0 .19 0 .52.52 0 0 0 .2-1l-3.6-1.49a.48.48 0 0 0 -.2 0 .53.53 0 0 0 -.48.32"/></clipPath><clipPath id="i"><path d="m114.45 9.77-1.45 3.6a.52.52 0 0 0 .28.68.71.71 0 0 0 .2 0 .53.53 0 0 0 .48-.32l1.49-3.61a.52.52 0 0 0 -.28-.67.48.48 0 0 0 -.2 0 .53.53 0 0 0 -.48.32"/></clipPath><clipPath id="j"><path d="m122.83 17.59-3.6 1.49a.52.52 0 0 0 .2 1 .79.79 0 0 0 .2 0l3.6-1.49a.53.53 0 0 0 .28-.68.52.52 0 0 0 -.48-.32.51.51 0 0 0 -.2 0"/></clipPath><clipPath id="k"><path d="m7.2 26.1v10.82a1 1 0 0 0 1 1h8.15a1 1 0 1 0 0-2h-7.16v-9.82a1 1 0 0 0 -2 0"/></clipPath><clipPath id="l"><path d="m28.65 26.1v7.21a2.78 2.78 0 0 1 -2.91 2.63h-.35a2.79 2.79 0 0 1 -2.92-2.63v-7.21a1 1 0 1 0 -2 0v7.21a4.75 4.75 0 0 0 4.89 4.6h.35a4.75 4.75 0 0 0 4.89-4.6v-7.21a1 1 0 1 0 -2 0"/></clipPath><clipPath id="m"><path d="m57.2 26.1v10.82a1 1 0 0 0 2 0v-10.82a1 1 0 0 0 -2 0"/></clipPath><clipPath id="n"><path d="m39.37 25.09a4.76 4.76 0 0 0 -4.89 4.6v7.21a1 1 0 0 0 2 0v-7.21a2.78 2.78 0 0 1 2.91-2.62h.36a2.78 2.78 0 0 1 2.91 2.62v7.21a1 1 0 1 0 2 0v-7.21a4.76 4.76 0 0 0 -4.89-4.6z"/></clipPath><clipPath id="o"><path d="m47.53 25.08a4.76 4.76 0 0 0 -4.89 4.6v7.32a1 1 0 0 0 2 0v-7.32a2.79 2.79 0 0 1 2.91-2.62h.35a2.79 2.79 0 0 1 2.92 2.62v7.32a1 1 0 0 0 2 0v-7.32a4.77 4.77 0 0 0 -4.9-4.6z"/></clipPath><clipPath id="p"><path d="m63.19 31.51a6.84 6.84 0 0 0 11.38 5.12 1 1 0 0 0 -1.32-1.48 4.82 4.82 0 0 1 -3.25 1.22 4.86 4.86 0 1 1 4.76-5.85h-6.38a1 1 0 1 0 0 2h7.5a1 1 0 0 0 1-1 6.84 6.84 0 0 0 -13.68 0"/></clipPath><clipPath id="q"><path d="m89.5 31.51a6.84 6.84 0 0 0 11.38 5.12 1 1 0 1 0 -1.32-1.48 4.86 4.86 0 1 1 1.54-4.63h-6.41a1 1 0 0 0 0 2h7.5a1 1 0 0 0 1-1 6.84 6.84 0 0 0 -13.68 0"/></clipPath><clipPath id="r"><path d="m81 31.51a1 1 0 0 0 2 0c0-2 1.77-4.39 3.84-4.39a1 1 0 1 0 0-2c-3.27 0-5.82 3.42-5.82 6.36"/></clipPath><clipPath id="s"><path d="m119.19 29.35a1 1 0 1 0 2 0 2.53 2.53 0 0 1 5 0 2.12 2.12 0 0 1 -.66 1.52l-.9.73-5.71 4.55a1 1 0 0 0 .61 1.76h7.35a1 1 0 1 0 0-2h-4.52l3.5-2.79 1-.77.06-.05a4.09 4.09 0 0 0 1.3-3 4.51 4.51 0 0 0 -9 0"/></clipPath><clipPath id="t"><path d="m56.88 21.58a1.31 1.31 0 1 0 1.31-1.31 1.31 1.31 0 0 0 -1.31 1.31"/></clipPath><path d="m81 26.1v10.82a1 1 0 1 0 2 0v-10.82a1 1 0 0 0 -2 0" fill="#fff"/><g clip-path="url(#a)"><path d="m80.96 25.11h1.98v12.8h-1.98z" fill="#fff"/></g><path d="m107.91 30.17a1 1 0 1 0 0 2h2.72a1.9 1.9 0 0 1 0 3.79h-2.72a1 1 0 1 0 0 2h2.72a3.87 3.87 0 0 0 0-7.74z" fill="#fff"/><g clip-path="url(#b)"><path d="m106.92 30.17h7.43v7.74h-7.43z" fill="#fff"/></g><path d="m101.5 20.55a1 1 0 0 0 1.83.76 6.38 6.38 0 1 1 5.87 8.86h-1.85a1 1 0 1 0 0 2h1.85a8.36 8.36 0 1 0 -7.7-11.6" fill="#fff"/><g clip-path="url(#c)"><path d="m101.29 15.44h16.27v16.71h-16.27z" fill="#fff"/></g><path d="m108.68 5.74v7a.52.52 0 0 0 .52.51.51.51 0 0 0 .52-.51v-7a.52.52 0 0 0 -.52-.52.52.52 0 0 0 -.52.52" fill="#fff"/><g clip-path="url(#d)"><path d="m108.68 5.22h1.03v8.02h-1.03z" fill="#fff"/></g><path d="m96.07 10.66a.5.5 0 0 0 0 .73l4.93 4.94a.52.52 0 0 0 .36.16.54.54 0 0 0 .37-.16.52.52 0 0 0 0-.73l-4.93-4.94a.53.53 0 0 0 -.37-.15.51.51 0 0 0 -.36.15" fill="#fff"/><g clip-path="url(#e)"><path d="m95.86 10.51h6.08v5.98h-6.08z" fill="#fff"/></g><path d="m121.61 10.66-5 4.94a.52.52 0 0 0 0 .73.56.56 0 0 0 .37.16.52.52 0 0 0 .36-.16l5-4.94a.52.52 0 0 0 0-.73.53.53 0 0 0 -.37-.15.51.51 0 0 0 -.36.15" fill="#fff"/><g clip-path="url(#f)"><path d="m116.46 10.51h6.07v5.98h-6.07z" fill="#fff"/></g><path d="m103.27 9.49a.51.51 0 0 0 -.27.67l1.49 3.61a.51.51 0 0 0 .47.32.65.65 0 0 0 .2 0 .51.51 0 0 0 .28-.68l-1.44-3.64a.52.52 0 0 0 -.68-.28" fill="#fff"/><g clip-path="url(#g)"><path d="m102.89 9.45h2.66v4.64h-2.66z" fill="#fff"/></g><path d="m94.89 17.87a.54.54 0 0 0 .28.68l3.61 1.45a.65.65 0 0 0 .19 0 .52.52 0 0 0 .2-1l-3.6-1.49a.48.48 0 0 0 -.2 0 .53.53 0 0 0 -.48.32" fill="#fff"/><g clip-path="url(#h)"><path d="m94.79 17.55h4.77v2.53h-4.77z" fill="#fff"/></g><path d="m114.45 9.77-1.45 3.6a.52.52 0 0 0 .28.68.71.71 0 0 0 .2 0 .53.53 0 0 0 .48-.32l1.49-3.61a.52.52 0 0 0 -.28-.67.48.48 0 0 0 -.2 0 .53.53 0 0 0 -.48.32" fill="#fff"/><g clip-path="url(#i)"><path d="m112.85 9.45h2.67v4.64h-2.67z" fill="#fff"/></g><path d="m122.83 17.59-3.6 1.49a.52.52 0 0 0 .2 1 .79.79 0 0 0 .2 0l3.6-1.49a.53.53 0 0 0 .28-.68.52.52 0 0 0 -.48-.32.51.51 0 0 0 -.2 0" fill="#fff"/><g clip-path="url(#j)"><path d="m118.84 17.55h4.77v2.53h-4.77z" fill="#fff"/></g><path d="m7.2 26.1v10.82a1 1 0 0 0 1 1h8.15a1 1 0 1 0 0-2h-7.16v-9.82a1 1 0 0 0 -2 0" fill="#fff"/><g clip-path="url(#k)"><path d="m7.2 25.11h10.14v12.8h-10.14z" fill="#fff"/></g><path d="m28.65 26.1v7.21a2.78 2.78 0 0 1 -2.91 2.63h-.35a2.79 2.79 0 0 1 -2.92-2.63v-7.21a1 1 0 1 0 -2 0v7.21a4.75 4.75 0 0 0 4.89 4.6h.35a4.75 4.75 0 0 0 4.89-4.6v-7.21a1 1 0 1 0 -2 0" fill="#fff"/><g clip-path="url(#l)"><path d="m20.5 25.11h10.14v12.8h-10.14z" fill="#fff"/></g><path d="m57.2 26.1v10.82a1 1 0 0 0 2 0v-10.82a1 1 0 0 0 -2 0" fill="#fff"/><g clip-path="url(#m)"><path d="m57.2 25.11h1.98v12.8h-1.98z" fill="#fff"/></g><path d="m39.37 25.09a4.76 4.76 0 0 0 -4.89 4.6v7.21a1 1 0 0 0 2 0v-7.21a2.78 2.78 0 0 1 2.91-2.62h.36a2.78 2.78 0 0 1 2.91 2.62v7.21a1 1 0 1 0 2 0v-7.21a4.76 4.76 0 0 0 -4.89-4.6z" fill="#fff"/><g clip-path="url(#n)"><path d="m34.48 25.09h10.14v12.8h-10.14z" fill="#fff"/></g><path d="m47.53 25.08a4.76 4.76 0 0 0 -4.89 4.6v7.32a1 1 0 0 0 2 0v-7.32a2.79 2.79 0 0 1 2.91-2.62h.35a2.79 2.79 0 0 1 2.92 2.62v7.32a1 1 0 0 0 2 0v-7.32a4.77 4.77 0 0 0 -4.9-4.6z" fill="#fff"/><g clip-path="url(#o)"><path d="m42.64 25.08h10.14v12.86h-10.14z" fill="#fff"/></g><path d="m63.19 31.51a6.84 6.84 0 0 0 11.38 5.12 1 1 0 0 0 -1.32-1.48 4.82 4.82 0 0 1 -3.25 1.22 4.86 4.86 0 1 1 4.76-5.85h-6.38a1 1 0 1 0 0 2h7.5a1 1 0 0 0 1-1 6.84 6.84 0 0 0 -13.68 0" fill="#fff"/><g clip-path="url(#p)"><path d="m63.19 24.67h13.68v13.68h-13.68z" fill="#fff"/></g><path d="m89.5 31.51a6.84 6.84 0 0 0 11.38 5.12 1 1 0 1 0 -1.32-1.48 4.86 4.86 0 1 1 1.54-4.63h-6.41a1 1 0 0 0 0 2h7.5a1 1 0 0 0 1-1 6.84 6.84 0 0 0 -13.68 0" fill="#fff"/><g clip-path="url(#q)"><path d="m89.5 24.67h13.68v13.68h-13.68z" fill="#fff"/></g><path d="m81 31.51a1 1 0 0 0 2 0c0-2 1.77-4.39 3.84-4.39a1 1 0 1 0 0-2c-3.27 0-5.82 3.42-5.82 6.36" fill="#fff"/><g clip-path="url(#r)"><path d="m80.96 25.15h6.81v7.36h-6.81z" fill="#fff"/></g><path d="m119.19 29.35a1 1 0 1 0 2 0 2.53 2.53 0 0 1 5 0 2.12 2.12 0 0 1 -.66 1.52l-.9.73-5.71 4.55a1 1 0 0 0 .61 1.76h7.35a1 1 0 1 0 0-2h-4.52l3.5-2.79 1-.77.06-.05a4.09 4.09 0 0 0 1.3-3 4.51 4.51 0 0 0 -9 0" fill="#fff"/><g clip-path="url(#s)"><path d="m118.48 25.11h9.71v12.8h-9.71z" fill="#fff"/></g><path d="m56.88 21.58a1.31 1.31 0 1 0 1.31-1.31 1.31 1.31 0 0 0 -1.31 1.31" fill="#fff"/><g clip-path="url(#t)"><path d="m56.88 20.27h2.61v2.62h-2.61z" fill="#fff"/></g></svg>