<?xml version="1.0" encoding="utf-8"?>
<!-- Generator: Adobe Illustrator 24.3.0, SVG Export Plug-In . SVG Version: 6.00 Build 0)  -->
<svg version="1.1" id="Layer_1" xmlns="http://www.w3.org/2000/svg" xmlns:xlink="http://www.w3.org/1999/xlink" x="0px" y="0px"
	 viewBox="0 0 215 215" style="enable-background:new 0 0 215 215;" xml:space="preserve">
<style type="text/css">
	.st0{fill:none;stroke:#63c7db;stroke-miterlimit:10;}
	.st1{fill:none;stroke:#63c7db;stroke-width:2.5;stroke-miterlimit:10;}
	.st2{fill:#63c7db;stroke:#63c7db;stroke-miterlimit:10;}
	.st3{fill:#63c7db;}
	.st4{fill:#63c7db;}
</style>
<path class="st0" d="M152.45,134.78h42.75v-30.42h-42.75c-3.27,0-5.93,2.65-5.93,5.93v18.56
	C146.53,132.12,149.18,134.78,152.45,134.78z"/>
<path class="st1" d="M147.72,139.71h46.8V98.64h-46.8c-3.27,0-5.93,2.65-5.93,5.93v29.21C141.79,137.06,144.45,139.71,147.72,139.71
	z"/>
<circle class="st2" cx="162.61" cy="119.36" r="8.25"/>
<path class="st1" d="M187.55,59.47H25.79v105.45c0,8.3,6.73,15.02,15.02,15.02H179.5c8.3,0,15.02-6.73,15.02-15.02V66.44
	C194.52,62.59,191.4,59.47,187.55,59.47z"/>
<g>
	<g>
		<line class="st1" x1="100.86" y1="131.09" x2="100.86" y2="180.5"/>
		<g>
			<path class="st3" d="M100.86,116c-2.63,7.1-7.13,15.91-11.89,21.37l11.89-4.3l11.89,4.3C107.98,131.91,103.49,123.1,100.86,116z"
				/>
		</g>
	</g>
</g>
<path class="st1" d="M187.29,58.92H29.64c-3.55,0-6.43-2.88-6.43-6.43v0c0-3.55,2.88-6.43,6.43-6.43l157.65,0"/>
<path class="st1" d="M37.41,58.19c0-14.68,11.9-26.58,26.58-26.58s26.58,11.9,26.58,26.58"/>
<g>
	<g>
		<path class="st4" d="M68.11,58.67l-1.47-2.87c-1.28,0.62-2.47,1.07-3.57,1.37c-1.1,0.29-2.16,0.47-3.16,0.53l-1.93-3.76
			c1.01-0.02,2.15-0.16,3.44-0.42c1.28-0.25,2.45-0.61,3.5-1.06l-2.26-4.42c-1.8,0.18-3.3,0.22-4.48,0.12
			c-1.18-0.1-2.15-0.38-2.89-0.86s-1.36-1.19-1.84-2.14c-0.5-0.97-0.67-1.94-0.51-2.91c0.16-0.97,0.59-1.91,1.29-2.81
			s1.63-1.71,2.79-2.43l-1.12-2.18l1.95-1l1.09,2.12c1.12-0.53,2.22-0.93,3.28-1.2c1.06-0.27,2.16-0.44,3.29-0.51l0.37,4.02
			c-0.94,0.08-1.86,0.22-2.73,0.44c-0.88,0.22-1.68,0.48-2.4,0.78l2.15,4.21c1.25-0.15,2.47-0.24,3.66-0.27
			c1.18-0.03,2.26,0.15,3.21,0.55s1.73,1.17,2.31,2.31c0.72,1.42,0.82,2.87,0.28,4.36c-0.54,1.49-1.81,2.86-3.8,4.12l1.49,2.92
			L68.11,58.67z M60.55,43.89l-1.71-3.35c-0.36,0.26-0.65,0.52-0.86,0.79s-0.33,0.54-0.38,0.81c-0.04,0.27,0.01,0.55,0.15,0.82
			c0.14,0.28,0.33,0.48,0.57,0.63c0.23,0.14,0.53,0.24,0.9,0.28C59.58,43.91,60.03,43.91,60.55,43.89z M66.84,51.36
			c0.61-0.46,1-0.9,1.17-1.34c0.17-0.44,0.14-0.88-0.09-1.33c-0.14-0.27-0.33-0.47-0.58-0.6c-0.25-0.14-0.57-0.22-0.95-0.26
			c-0.38-0.04-0.84-0.04-1.37-0.01L66.84,51.36z"/>
	</g>
</g>
</svg>
